<svg width="6" height="10" viewBox="0 0 6 10" fill="none" xmlns="http://www.w3.org/2000/svg">
<path fill-rule="evenodd" clip-rule="evenodd" d="M0.903759 8.97118C0.874657 8.94215 0.851568 8.90767 0.835814 8.8697C0.82006 8.83173 0.811951 8.79103 0.811951 8.74993C0.811951 8.70883 0.82006 8.66812 0.835814 8.63016C0.851568 8.59219 0.874657 8.55771 0.903759 8.52868L4.43313 4.99993L0.903759 1.47118C0.874704 1.44212 0.851656 1.40763 0.835932 1.36967C0.820207 1.33171 0.812114 1.29102 0.812114 1.24993C0.812114 1.20884 0.820207 1.16815 0.835932 1.13019C0.851656 1.09223 0.874704 1.05773 0.903759 1.02868C0.932814 0.999625 0.967307 0.976577 1.00527 0.960853C1.04323 0.945128 1.08392 0.937036 1.12501 0.937036C1.1661 0.937036 1.20679 0.945128 1.24475 0.960853C1.28271 0.976577 1.3172 0.999625 1.34626 1.02868L5.09626 4.77868C5.12536 4.80771 5.14845 4.84219 5.1642 4.88016C5.17996 4.91812 5.18807 4.95882 5.18807 4.99993C5.18807 5.04103 5.17996 5.08173 5.1642 5.1197C5.14845 5.15767 5.12536 5.19215 5.09626 5.22118L1.34626 8.97118C1.31723 9.00028 1.28275 9.02337 1.24478 9.03912C1.20681 9.05488 1.16611 9.06299 1.12501 9.06299C1.0839 9.06299 1.0432 9.05488 1.00524 9.03912C0.967272 9.02337 0.932788 9.00028 0.903759 8.97118Z" fill="#3B82F6" stroke="#3B82F6" stroke-width="0.7"/>
</svg>
