<svg width="306" height="336" viewBox="0 0 306 336" fill="none" xmlns="http://www.w3.org/2000/svg">
<rect width="306" height="336" rx="4" fill="#3B82F6" fill-opacity="0.04"/>
<path d="M153 114C152.34 114 151.688 114.023 151.039 114.064L151.279 117.806C152.425 117.732 153.575 117.732 154.721 117.806L154.961 114.064C154.308 114.021 153.654 114 153 114V114ZM147.15 114.57C145.853 114.829 144.585 115.17 143.355 115.582L144.559 119.137C145.635 118.77 146.741 118.474 147.874 118.249L147.15 114.574V114.57ZM162.645 115.586C161.405 115.166 160.138 114.828 158.854 114.574L158.126 118.249C159.259 118.474 160.365 118.774 161.441 119.137L162.645 115.586ZM169.669 119.055C168.58 118.327 167.445 117.67 166.271 117.09L164.61 120.45C165.641 120.96 166.635 121.537 167.584 122.171L169.669 119.055ZM139.725 117.09C138.548 117.671 137.415 118.328 136.331 119.055L138.416 122.167C139.369 121.531 140.363 120.958 141.39 120.45L139.725 117.09ZM133.219 121.444C132.236 122.306 131.306 123.236 130.444 124.219L133.264 126.694C134.021 125.831 134.831 125.021 135.694 124.264L133.219 121.444ZM175.556 124.219C174.692 123.235 173.765 122.308 172.781 121.444L170.306 124.264C171.169 125.021 171.983 125.831 172.736 126.694L175.556 124.219ZM179.91 130.725C179.33 129.552 178.674 128.418 177.945 127.331L174.833 129.416C175.466 130.365 176.04 131.359 176.55 132.39L179.91 130.729V130.725ZM128.055 127.331C127.328 128.415 126.668 129.547 126.09 130.729L129.45 132.39C129.96 131.359 130.538 130.365 131.171 129.416L128.055 127.331ZM124.586 134.355C124.166 135.595 123.828 136.862 123.574 138.146L127.249 138.874C127.474 137.741 127.774 136.635 128.138 135.559L124.586 134.355ZM182.43 138.15C182.176 136.864 181.838 135.596 181.418 134.355L177.863 135.559C178.23 136.635 178.526 137.741 178.751 138.874L182.426 138.146L182.43 138.15ZM123.064 142.039C122.979 143.345 122.979 144.655 123.064 145.961L126.806 145.721C126.732 144.575 126.732 143.425 126.806 142.279L123.064 142.039ZM183 144C183 143.346 182.979 142.692 182.936 142.039L179.194 142.279C179.268 143.425 179.268 144.575 179.194 145.721L182.936 145.961C182.979 145.308 183 144.654 183 144ZM123.57 149.85C123.829 151.148 124.17 152.415 124.583 153.645L128.138 152.441C127.769 151.357 127.472 150.25 127.249 149.126L123.574 149.854L123.57 149.85ZM181.414 153.645C181.834 152.415 182.171 151.147 182.426 149.854L178.751 149.126C178.526 150.259 178.226 151.365 177.863 152.441L181.414 153.645ZM126.09 157.275C126.67 158.448 127.327 159.582 128.055 160.669L131.168 158.584C130.531 157.631 129.957 156.638 129.45 155.61L126.09 157.271V157.275ZM177.945 160.669C178.673 159.585 179.333 158.452 179.91 157.271L176.55 155.61C176.04 156.641 175.463 157.635 174.829 158.584L177.945 160.669ZM130.444 163.781C131.306 164.764 132.236 165.694 133.219 166.556L135.694 163.736C134.832 162.98 134.02 162.168 133.264 161.306L130.444 163.781ZM172.781 166.556C173.764 165.694 174.694 164.764 175.556 163.781L172.736 161.306C171.983 162.169 171.169 162.982 170.306 163.736L172.781 166.556ZM166.275 170.91C167.453 170.329 168.585 169.673 169.669 168.945L167.584 165.832C166.631 166.469 165.637 167.042 164.61 167.55L166.271 170.91H166.275ZM136.331 168.945C137.415 169.673 138.548 170.333 139.729 170.91L141.39 167.55C140.362 167.042 139.369 166.467 138.416 165.829L136.331 168.945ZM143.355 172.414C144.585 172.834 145.853 173.171 147.146 173.426L147.874 169.751C146.75 169.528 145.643 169.231 144.559 168.862L143.355 172.414ZM158.85 173.43C160.136 173.176 161.404 172.838 162.645 172.417L161.441 168.862C160.357 169.231 159.25 169.528 158.126 169.751L158.854 173.426L158.85 173.43ZM151.039 173.936C152.345 174.021 153.655 174.021 154.961 173.936L154.721 170.194C153.575 170.268 152.425 170.268 151.279 170.194L151.039 173.936ZM154.875 130.875C154.875 130.378 154.677 129.901 154.326 129.549C153.974 129.198 153.497 129 153 129C152.503 129 152.026 129.198 151.674 129.549C151.323 129.901 151.125 130.378 151.125 130.875V142.125H139.875C139.378 142.125 138.901 142.323 138.549 142.674C138.198 143.026 138 143.503 138 144C138 144.497 138.198 144.974 138.549 145.326C138.901 145.677 139.378 145.875 139.875 145.875H151.125V157.125C151.125 157.622 151.323 158.099 151.674 158.451C152.026 158.802 152.503 159 153 159C153.497 159 153.974 158.802 154.326 158.451C154.677 158.099 154.875 157.622 154.875 157.125V145.875H166.125C166.622 145.875 167.099 145.677 167.451 145.326C167.802 144.974 168 144.497 168 144C168 143.503 167.802 143.026 167.451 142.674C167.099 142.323 166.622 142.125 166.125 142.125H154.875V130.875Z" fill="#3B82F6"/>
<path d="M70.4382 217V203.909H72.4134V209.598H78.9396V203.909H80.9212V217H78.9396V211.292H72.4134V217H70.4382ZM87.7798 217.198C86.8594 217.198 86.0561 216.987 85.37 216.565C84.6839 216.143 84.1513 215.553 83.772 214.795C83.3928 214.036 83.2031 213.15 83.2031 212.136C83.2031 211.117 83.3928 210.227 83.772 209.464C84.1513 208.701 84.6839 208.109 85.37 207.687C86.0561 207.265 86.8594 207.054 87.7798 207.054C88.7003 207.054 89.5036 207.265 90.1896 207.687C90.8757 208.109 91.4084 208.701 91.7876 209.464C92.1669 210.227 92.3565 211.117 92.3565 212.136C92.3565 213.15 92.1669 214.036 91.7876 214.795C91.4084 215.553 90.8757 216.143 90.1896 216.565C89.5036 216.987 88.7003 217.198 87.7798 217.198ZM87.7862 215.594C88.3828 215.594 88.8771 215.436 89.2692 215.121C89.6612 214.805 89.951 214.386 90.1385 213.862C90.3303 213.337 90.4261 212.76 90.4261 212.129C90.4261 211.503 90.3303 210.928 90.1385 210.403C89.951 209.875 89.6612 209.451 89.2692 209.131C88.8771 208.812 88.3828 208.652 87.7862 208.652C87.1854 208.652 86.6868 208.812 86.2905 209.131C85.8984 209.451 85.6065 209.875 85.4148 210.403C85.2273 210.928 85.1335 211.503 85.1335 212.129C85.1335 212.76 85.2273 213.337 85.4148 213.862C85.6065 214.386 85.8984 214.805 86.2905 215.121C86.6868 215.436 87.1854 215.594 87.7862 215.594ZM94.4899 217V207.182H98.5616C99.6696 207.182 100.547 207.418 101.195 207.891C101.843 208.36 102.167 208.997 102.167 209.803C102.167 210.378 101.983 210.834 101.617 211.17C101.251 211.507 100.765 211.733 100.16 211.848C100.599 211.899 101.001 212.031 101.368 212.244C101.734 212.453 102.028 212.734 102.25 213.088C102.476 213.442 102.589 213.864 102.589 214.354C102.589 214.874 102.454 215.334 102.186 215.734C101.917 216.131 101.528 216.442 101.016 216.668C100.509 216.889 99.8975 217 99.1816 217H94.4899ZM96.286 215.402H99.1816C99.6547 215.402 100.025 215.289 100.294 215.063C100.562 214.837 100.697 214.531 100.697 214.143C100.697 213.687 100.562 213.329 100.294 213.069C100.025 212.805 99.6547 212.673 99.1816 212.673H96.286V215.402ZM96.286 211.273H98.5808C98.9387 211.273 99.2456 211.222 99.5012 211.119C99.7612 211.017 99.9593 210.872 100.096 210.685C100.236 210.493 100.307 210.267 100.307 210.007C100.307 209.628 100.151 209.332 99.84 209.119C99.5289 208.906 99.1028 208.799 98.5616 208.799H96.286V211.273ZM108.821 217.198C107.9 217.198 107.097 216.987 106.411 216.565C105.725 216.143 105.192 215.553 104.813 214.795C104.434 214.036 104.244 213.15 104.244 212.136C104.244 211.117 104.434 210.227 104.813 209.464C105.192 208.701 105.725 208.109 106.411 207.687C107.097 207.265 107.9 207.054 108.821 207.054C109.741 207.054 110.545 207.265 111.231 207.687C111.917 208.109 112.449 208.701 112.829 209.464C113.208 210.227 113.398 211.117 113.398 212.136C113.398 213.15 113.208 214.036 112.829 214.795C112.449 215.553 111.917 216.143 111.231 216.565C110.545 216.987 109.741 217.198 108.821 217.198ZM108.827 215.594C109.424 215.594 109.918 215.436 110.31 215.121C110.702 214.805 110.992 214.386 111.18 213.862C111.371 213.337 111.467 212.76 111.467 212.129C111.467 211.503 111.371 210.928 111.18 210.403C110.992 209.875 110.702 209.451 110.31 209.131C109.918 208.812 109.424 208.652 108.827 208.652C108.226 208.652 107.728 208.812 107.331 209.131C106.939 209.451 106.648 209.875 106.456 210.403C106.268 210.928 106.175 211.503 106.175 212.129C106.175 212.76 106.268 213.337 106.456 213.862C106.648 214.386 106.939 214.805 107.331 215.121C107.728 215.436 108.226 215.594 108.827 215.594ZM119.762 217.198C118.795 217.198 117.962 216.991 117.263 216.578C116.569 216.161 116.032 215.575 115.652 214.82C115.277 214.062 115.09 213.173 115.09 212.155C115.09 211.149 115.277 210.263 115.652 209.496C116.032 208.729 116.56 208.13 117.238 207.7C117.919 207.269 118.716 207.054 119.628 207.054C120.182 207.054 120.719 207.146 121.239 207.329C121.759 207.512 122.225 207.8 122.639 208.192C123.052 208.584 123.378 209.093 123.617 209.719C123.855 210.342 123.975 211.098 123.975 211.989V212.666H116.17V211.234H122.102C122.102 210.732 122 210.286 121.795 209.898C121.591 209.506 121.303 209.197 120.932 208.972C120.566 208.746 120.135 208.633 119.641 208.633C119.104 208.633 118.635 208.765 118.235 209.029C117.838 209.289 117.532 209.63 117.314 210.052C117.101 210.469 116.995 210.923 116.995 211.413V212.532C116.995 213.188 117.11 213.746 117.34 214.207C117.574 214.667 117.9 215.018 118.318 215.261C118.735 215.5 119.223 215.619 119.782 215.619C120.144 215.619 120.474 215.568 120.772 215.466C121.071 215.359 121.328 215.202 121.546 214.993C121.763 214.784 121.929 214.526 122.044 214.219L123.853 214.545C123.708 215.078 123.449 215.545 123.074 215.945C122.703 216.342 122.236 216.651 121.674 216.872C121.115 217.089 120.478 217.198 119.762 217.198ZM134.995 217.198C134.074 217.198 133.271 216.987 132.585 216.565C131.899 216.143 131.366 215.553 130.987 214.795C130.608 214.036 130.418 213.15 130.418 212.136C130.418 211.117 130.608 210.227 130.987 209.464C131.366 208.701 131.899 208.109 132.585 207.687C133.271 207.265 134.074 207.054 134.995 207.054C135.915 207.054 136.718 207.265 137.404 207.687C138.091 208.109 138.623 208.701 139.002 209.464C139.382 210.227 139.571 211.117 139.571 212.136C139.571 213.15 139.382 214.036 139.002 214.795C138.623 215.553 138.091 216.143 137.404 216.565C136.718 216.987 135.915 217.198 134.995 217.198ZM135.001 215.594C135.598 215.594 136.092 215.436 136.484 215.121C136.876 214.805 137.166 214.386 137.353 213.862C137.545 213.337 137.641 212.76 137.641 212.129C137.641 211.503 137.545 210.928 137.353 210.403C137.166 209.875 136.876 209.451 136.484 209.131C136.092 208.812 135.598 208.652 135.001 208.652C134.4 208.652 133.902 208.812 133.505 209.131C133.113 209.451 132.821 209.875 132.63 210.403C132.442 210.928 132.348 211.503 132.348 212.129C132.348 212.76 132.442 213.337 132.63 213.862C132.821 214.386 133.113 214.805 133.505 215.121C133.902 215.436 134.4 215.594 135.001 215.594ZM149.279 203.526L150.072 204.734C149.778 205.002 149.443 205.194 149.068 205.309C148.698 205.42 148.269 205.49 147.784 205.52C147.298 205.545 146.742 205.569 146.115 205.59C145.408 205.612 144.826 205.765 144.37 206.05C143.914 206.332 143.563 206.749 143.316 207.303C143.073 207.853 142.915 208.543 142.843 209.374H142.964C143.284 208.765 143.727 208.309 144.294 208.006C144.865 207.704 145.506 207.553 146.218 207.553C147.01 207.553 147.715 207.734 148.333 208.096C148.951 208.458 149.437 208.989 149.791 209.688C150.149 210.382 150.328 211.232 150.328 212.238C150.328 213.256 150.14 214.136 149.765 214.878C149.394 215.619 148.87 216.192 148.193 216.597C147.519 216.998 146.725 217.198 145.808 217.198C144.892 217.198 144.093 216.991 143.411 216.578C142.734 216.161 142.208 215.543 141.833 214.724C141.462 213.906 141.276 212.896 141.276 211.695V210.723C141.276 208.477 141.677 206.788 142.478 205.654C143.279 204.521 144.477 203.939 146.07 203.909C146.586 203.896 147.046 203.894 147.451 203.903C147.856 203.907 148.21 203.888 148.512 203.845C148.819 203.798 149.075 203.692 149.279 203.526ZM145.815 215.594C146.347 215.594 146.806 215.46 147.189 215.191C147.577 214.918 147.875 214.533 148.084 214.034C148.293 213.536 148.397 212.947 148.397 212.27C148.397 211.605 148.293 211.04 148.084 210.576C147.875 210.112 147.577 209.758 147.189 209.515C146.801 209.268 146.337 209.144 145.796 209.144C145.395 209.144 145.037 209.214 144.722 209.355C144.406 209.491 144.136 209.694 143.91 209.962C143.688 210.231 143.516 210.559 143.392 210.947C143.273 211.33 143.209 211.771 143.2 212.27C143.2 213.284 143.433 214.092 143.897 214.692C144.366 215.293 145.005 215.594 145.815 215.594ZM153.759 207.182V208.837H151.093V207.182H153.759ZM155.197 210.557H158.048C159.249 210.557 160.174 210.855 160.822 211.452C161.469 212.048 161.795 212.817 161.8 213.759C161.795 214.373 161.648 214.925 161.359 215.415C161.069 215.905 160.645 216.293 160.087 216.578C159.528 216.859 158.849 217 158.048 217H153.759V207.182H155.631V215.351H158.048C158.597 215.351 159.049 215.208 159.403 214.923C159.756 214.633 159.933 214.264 159.933 213.817C159.933 213.344 159.756 212.958 159.403 212.66C159.049 212.357 158.597 212.206 158.048 212.206H155.197V210.557ZM169.796 217V208.812H167.444C166.886 208.812 166.451 208.942 166.14 209.202C165.829 209.462 165.673 209.803 165.673 210.224C165.673 210.642 165.816 210.979 166.102 211.234C166.391 211.486 166.796 211.612 167.316 211.612H170.352V213.158H167.316C166.592 213.158 165.965 213.039 165.437 212.8C164.913 212.558 164.508 212.214 164.222 211.771C163.941 211.328 163.8 210.804 163.8 210.199C163.8 209.581 163.945 209.048 164.235 208.601C164.529 208.149 164.949 207.8 165.494 207.553C166.044 207.305 166.694 207.182 167.444 207.182H171.592V217H169.796ZM163.353 217L166.121 212.04H168.077L165.309 217H163.353ZM174.136 217V207.182H178.208C179.316 207.182 180.194 207.418 180.842 207.891C181.489 208.36 181.813 208.997 181.813 209.803C181.813 210.378 181.63 210.834 181.263 211.17C180.897 211.507 180.411 211.733 179.806 211.848C180.245 211.899 180.648 212.031 181.014 212.244C181.381 212.453 181.675 212.734 181.896 213.088C182.122 213.442 182.235 213.864 182.235 214.354C182.235 214.874 182.101 215.334 181.832 215.734C181.564 216.131 181.174 216.442 180.663 216.668C180.156 216.889 179.544 217 178.828 217H174.136ZM175.933 215.402H178.828C179.301 215.402 179.672 215.289 179.94 215.063C180.209 214.837 180.343 214.531 180.343 214.143C180.343 213.687 180.209 213.329 179.94 213.069C179.672 212.805 179.301 212.673 178.828 212.673H175.933V215.402ZM175.933 211.273H178.227C178.585 211.273 178.892 211.222 179.148 211.119C179.408 211.017 179.606 210.872 179.742 210.685C179.883 210.493 179.953 210.267 179.953 210.007C179.953 209.628 179.798 209.332 179.487 209.119C179.175 208.906 178.749 208.799 178.208 208.799H175.933V211.273ZM183.558 217L183.552 215.344H183.903C184.176 215.344 184.404 215.287 184.587 215.172C184.775 215.053 184.928 214.852 185.048 214.571C185.167 214.29 185.259 213.902 185.322 213.408C185.386 212.909 185.433 212.283 185.463 211.528L185.636 207.182H192.488V217H190.615V208.831H187.406L187.253 212.168C187.214 212.977 187.131 213.685 187.004 214.29C186.88 214.895 186.699 215.4 186.46 215.805C186.222 216.205 185.915 216.506 185.54 216.706C185.165 216.902 184.709 217 184.172 217H183.558ZM199.268 217.198C198.301 217.198 197.468 216.991 196.769 216.578C196.074 216.161 195.537 215.575 195.158 214.82C194.783 214.062 194.596 213.173 194.596 212.155C194.596 211.149 194.783 210.263 195.158 209.496C195.537 208.729 196.066 208.13 196.743 207.7C197.425 207.269 198.222 207.054 199.134 207.054C199.688 207.054 200.225 207.146 200.745 207.329C201.265 207.512 201.731 207.8 202.145 208.192C202.558 208.584 202.884 209.093 203.123 209.719C203.361 210.342 203.481 211.098 203.481 211.989V212.666H195.676V211.234H201.608C201.608 210.732 201.506 210.286 201.301 209.898C201.096 209.506 200.809 209.197 200.438 208.972C200.072 208.746 199.641 208.633 199.147 208.633C198.61 208.633 198.141 208.765 197.741 209.029C197.344 209.289 197.037 209.63 196.82 210.052C196.607 210.469 196.501 210.923 196.501 211.413V212.532C196.501 213.188 196.616 213.746 196.846 214.207C197.08 214.667 197.406 215.018 197.824 215.261C198.241 215.5 198.729 215.619 199.287 215.619C199.65 215.619 199.98 215.568 200.278 215.466C200.577 215.359 200.834 215.202 201.052 214.993C201.269 214.784 201.435 214.526 201.55 214.219L203.359 214.545C203.214 215.078 202.954 215.545 202.579 215.945C202.209 216.342 201.742 216.651 201.18 216.872C200.621 217.089 199.984 217.198 199.268 217.198ZM212.255 211.266V212.922H206.937V211.266H212.255ZM207.474 207.182V217H205.601V207.182H207.474ZM213.591 207.182V217H211.725V207.182H213.591ZM218.021 214.322L222.348 207.182H224.407V217H222.534V209.854L218.225 217H216.148V207.182H218.021V214.322ZM231.208 217.198C230.24 217.198 229.407 216.991 228.708 216.578C228.014 216.161 227.477 215.575 227.098 214.82C226.723 214.062 226.535 213.173 226.535 212.155C226.535 211.149 226.723 210.263 227.098 209.496C227.477 208.729 228.005 208.13 228.683 207.7C229.365 207.269 230.162 207.054 231.074 207.054C231.627 207.054 232.164 207.146 232.684 207.329C233.204 207.512 233.671 207.8 234.084 208.192C234.498 208.584 234.824 209.093 235.062 209.719C235.301 210.342 235.42 211.098 235.42 211.989V212.666H227.615V211.234H233.547C233.547 210.732 233.445 210.286 233.24 209.898C233.036 209.506 232.748 209.197 232.377 208.972C232.011 208.746 231.581 208.633 231.086 208.633C230.549 208.633 230.081 208.765 229.68 209.029C229.284 209.289 228.977 209.63 228.76 210.052C228.547 210.469 228.44 210.923 228.44 211.413V212.532C228.44 213.188 228.555 213.746 228.785 214.207C229.02 214.667 229.346 215.018 229.763 215.261C230.181 215.5 230.669 215.619 231.227 215.619C231.589 215.619 231.919 215.568 232.218 215.466C232.516 215.359 232.774 215.202 232.991 214.993C233.208 214.784 233.375 214.526 233.49 214.219L235.299 214.545C235.154 215.078 234.894 215.545 234.519 215.945C234.148 216.342 233.681 216.651 233.119 216.872C232.561 217.089 231.924 217.198 231.208 217.198Z" fill="#3B82F6"/>
<rect x="1.5" y="1.5" width="303" height="333" rx="2.5" stroke="#3B82F6" stroke-opacity="0.16" stroke-width="3" stroke-dasharray="16 16"/>
</svg>
